<svg width="300" height="80" viewBox="0 0 300 80" fill="none" xmlns="http://www.w3.org/2000/svg">
  <!-- Icon -->
  <g transform="translate(10, 10)">
    <!-- Hexagon outline -->
    <path d="M30 5L52.5 17.5V42.5L30 55L7.5 42.5V17.5L30 5Z" stroke="#00d4aa" stroke-width="2" stroke-linecap="round" stroke-linejoin="round"/>
    
    <!-- Center node -->
    <circle cx="30" cy="30" r="3" fill="#00d4aa"/>
    
    <!-- Orbital nodes -->
    <circle cx="30" cy="17.5" r="2.5" fill="#00d4aa"/>
    <circle cx="40.825" cy="23.75" r="2.5" fill="#00d4aa"/>
    <circle cx="40.825" cy="36.25" r="2.5" fill="#00d4aa"/>
    <circle cx="30" cy="42.5" r="2.5" fill="#00d4aa"/>
    <circle cx="19.175" cy="36.25" r="2.5" fill="#00d4aa"/>
    <circle cx="19.175" cy="23.75" r="2.5" fill="#00d4aa"/>
    
    <!-- Connecting lines -->
    <line x1="30" y1="30" x2="30" y2="17.5" stroke="#00d4aa" stroke-width="1.5" opacity="0.6"/>
    <line x1="30" y1="30" x2="40.825" y2="23.75" stroke="#00d4aa" stroke-width="1.5" opacity="0.6"/>
    <line x1="30" y1="30" x2="40.825" y2="36.25" stroke="#00d4aa" stroke-width="1.5" opacity="0.6"/>
    <line x1="30" y1="30" x2="30" y2="42.5" stroke="#00d4aa" stroke-width="1.5" opacity="0.6"/>
    <line x1="30" y1="30" x2="19.175" y2="36.25" stroke="#00d4aa" stroke-width="1.5" opacity="0.6"/>
    <line x1="30" y1="30" x2="19.175" y2="23.75" stroke="#00d4aa" stroke-width="1.5" opacity="0.6"/>
  </g>
  
  <!-- Text -->
  <text x="80" y="50" font-family="Inter, system-ui, sans-serif" font-size="28" font-weight="700" fill="#00d4aa" letter-spacing="-0.02em">Hexprove</text>
</svg>
