<svg width="150" height="40" viewBox="0 0 150 40" fill="none" xmlns="http://www.w3.org/2000/svg">
  <!-- Bloomberg Icon -->
  <rect x="4" y="4" width="32" height="32" rx="4" fill="#000000"/>
  <path d="M14 12h5c2.5 0 4 1.3 4 3.3 0 1.5-.8 2.5-2 3 1.5.4 2.5 1.7 2.5 3.4 0 2.2-1.7 3.6-4.3 3.6H14V12zm2.2 5.5h2.5c1.3 0 2-.6 2-1.7s-.7-1.7-2-1.7h-2.5v3.4zm0 5.8h2.8c1.4 0 2.2-.7 2.2-1.9s-.8-1.9-2.2-1.9h-2.8v3.8z" fill="white"/>
  <!-- Text -->
  <path d="M48 28V12h4.5c2.8 0 4.5 1.5 4.5 4s-1.7 4-4.5 4H50v8h-2zm2-10h2.3c1.6 0 2.5-.8 2.5-2s-.9-2-2.5-2H50v4zm8 10V12h2v14h-2zm5.5-7c0-4 2.5-7.3 6.3-7.3s6.3 3.3 6.3 7.3-2.5 7.3-6.3 7.3-6.3-3.3-6.3-7.3zm2.2 0c0 3 1.7 5.3 4.1 5.3s4.1-2.3 4.1-5.3-1.7-5.3-4.1-5.3-4.1 2.3-4.1 5.3zm13.3 7V12h2v14h-2zm5.5-7c0-4 2.5-7.3 6.3-7.3s6.3 3.3 6.3 7.3-2.5 7.3-6.3 7.3-6.3-3.3-6.3-7.3zm2.2 0c0 3 1.7 5.3 4.1 5.3s4.1-2.3 4.1-5.3-1.7-5.3-4.1-5.3-4.1 2.3-4.1 5.3z" fill="white"/>
</svg>
