<svg width="140" height="40" viewBox="0 0 140 40" fill="none" xmlns="http://www.w3.org/2000/svg">
  <!-- OpenSea Icon -->
  <circle cx="20" cy="20" r="16" fill="#2081E2"/>
  <path d="M12 22l8-12v9h8l-8 12v-9h-8z" fill="white"/>
  <!-- Text -->
  <path d="M48 21c0-4.2 2.8-7.3 6.8-7.3s6.8 3.1 6.8 7.3-2.8 7.3-6.8 7.3-6.8-3.1-6.8-7.3zm2.6 0c0 2.8 1.6 5 4.2 5s4.2-2.2 4.2-5-1.6-5-4.2-5-4.2 2.2-4.2 5zm12.4 7V14h6c3.2 0 5.2 2 5.2 4.8 0 2.8-2 4.8-5.2 4.8h-3.5V28H63zm2.5-6.6h3.2c1.8 0 2.9-1 2.9-2.6s-1.1-2.6-2.9-2.6h-3.2v5.2zm10 6.6V14h8.8v2.2h-6.3v3.6h5.8v2.2h-5.8v3.8h6.3V28h-8.8zm11 0V14h2.5l4.5 9.2V14h2.3v14h-2.4l-4.6-9.3V28h-2.3zm12.5-7c0-4 2.6-7.3 6.5-7.3 2.8 0 4.8 1.5 5.6 3.8l-2.3.8c-.5-1.4-1.7-2.3-3.3-2.3-2.4 0-4 2-4 5s1.6 5 4 5c1.6 0 2.8-.9 3.3-2.3l2.3.8c-.8 2.3-2.8 3.8-5.6 3.8-3.9 0-6.5-3.3-6.5-7.3z" fill="#2081E2"/>
</svg>
