<svg width="140" height="40" viewBox="0 0 140 40" fill="none" xmlns="http://www.w3.org/2000/svg">
  <!-- Uniswap Unicorn Icon -->
  <circle cx="20" cy="20" r="16" fill="#FF007A"/>
  <path d="M15 14c0 0 2-1 4 0s3 3 3 3" stroke="white" stroke-width="1.5" stroke-linecap="round"/>
  <circle cx="14" cy="16" r="1.5" fill="white"/>
  <circle cx="18" cy="15" r="1" fill="white"/>
  <path d="M12 22c2 3 6 4 10 2" stroke="white" stroke-width="1.5" stroke-linecap="round"/>
  <path d="M24 12l4-2" stroke="white" stroke-width="2" stroke-linecap="round"/>
  <!-- Text -->
  <path d="M48 28V14h2.5v10.8h5.7V28H48zm9.5 0V14h2.5v14h-2.5zm5 0V14h2.5l4.5 9.2V14h2.3v14h-2.4l-4.6-9.3V28H62.5zm12 0V14h2.5v14h-2.5zm4.8-7c0-4.2 2.8-7.3 6.8-7.3s6.8 3.1 6.8 7.3-2.8 7.3-6.8 7.3-6.8-3.1-6.8-7.3zm2.6 0c0 2.8 1.6 5 4.2 5s4.2-2.2 4.2-5-1.6-5-4.2-5-4.2 2.2-4.2 5z" fill="#FF007A"/>
</svg>
